<svg width="560" height="56" viewBox="0 0 560 56" fill="none" xmlns="http://www.w3.org/2000/svg">
<g clip-path="url(#clip0_1622_8881)">
<path opacity="0.1" d="M556.045 26.423C581.43 34.7502 619.385 37.5996 635.189 37.9834V-123H398.126V37.9834C414.299 37.1237 452.402 33.6079 475.425 26.423C504.205 17.4418 524.314 16.014 556.045 26.423Z" fill="#FAFAFA"/>
<path opacity="0.1" d="M318.982 26.423C344.367 34.7502 382.322 37.5996 398.126 37.9834V-123H161.063V37.9834C177.236 37.1237 215.339 33.6079 238.362 26.423C267.142 17.4418 287.251 16.014 318.982 26.423Z" fill="#FAFAFA"/>
<path opacity="0.1" d="M81.9191 26.423C107.304 34.7502 145.259 37.5996 161.063 37.9834V-123H-76V37.9834C-59.8268 37.1237 -21.7245 33.6079 1.29916 26.423C30.0788 17.4418 50.1877 16.014 81.9191 26.423Z" fill="#FAFAFA"/>
<path opacity="0.1" d="M177.679 22.5204C211.013 26.4579 259.243 32.7532 279.595 33.1046V-114.285H-25.6777V56C-4.8511 55.2129 13.0026 51.7268 42.6508 45.1485C79.7111 36.9257 126.958 16.5292 177.679 22.5204Z" fill="#FAFAFA"/>
<path opacity="0.1" d="M381.511 22.5204C348.176 26.4579 299.946 32.7532 279.595 33.1046V-114.285H584.867V56C564.04 55.2129 546.187 51.7268 516.539 45.1485C479.478 36.9257 432.231 16.5292 381.511 22.5204Z" fill="#FAFAFA"/>
</g>
<defs>
<clipPath id="clip0_1622_8881">
<rect width="560" height="56" fill="white"/>
</clipPath>
</defs>
</svg>
