<svg width="180" height="172" viewBox="0 0 180 172" fill="none" xmlns="http://www.w3.org/2000/svg">
<path d="M292.571 160.254C292.571 233.331 233.331 292.572 160.254 292.572C87.1771 292.572 27.9365 233.331 27.9365 160.254C27.9365 87.1776 87.1771 27.937 160.254 27.937C233.331 27.937 292.571 87.1776 292.571 160.254ZM54.4 160.254C54.4 218.716 101.792 266.108 160.254 266.108C218.716 266.108 266.108 218.716 266.108 160.254C266.108 101.793 218.716 54.4005 160.254 54.4005C101.792 54.4005 54.4 101.793 54.4 160.254Z" fill="#FAFAFA"/>
<path opacity="0.7" d="M292.571 160.254C292.571 233.331 233.331 292.572 160.254 292.572C87.1771 292.572 27.9365 233.331 27.9365 160.254C27.9365 87.1776 87.1771 27.937 160.254 27.937C233.331 27.937 292.571 87.1776 292.571 160.254ZM67.6318 160.254C67.6318 211.408 109.1 252.877 160.254 252.877C211.408 252.877 252.876 211.408 252.876 160.254C252.876 109.101 211.408 67.6322 160.254 67.6322C109.1 67.6322 67.6318 109.101 67.6318 160.254Z" fill="#FAFAFA"/>
<path opacity="0.5" d="M160.254 27.9364C233.331 27.9364 292.571 87.1769 292.571 160.254C292.571 233.331 233.331 292.571 160.254 292.571C87.1771 292.571 27.9365 233.331 27.9365 160.254C27.9365 87.1769 87.1771 27.9364 160.254 27.9364ZM160.254 239.644C204.1 239.644 239.644 204.1 239.644 160.254C239.644 116.408 204.1 80.8633 160.254 80.8633C116.408 80.8633 80.8635 116.408 80.8635 160.254C80.8635 204.1 116.408 239.644 160.254 239.644Z" fill="#FAFAFA"/>
<circle opacity="0.2" cx="160" cy="160" r="158.476" stroke="#FAFAFA" stroke-width="3.04762"/>
</svg>
